<svg width="40" height="40" viewBox="0 0 40 40" fill="none" xmlns="http://www.w3.org/2000/svg">
<g clip-path="url(#clip0)">
<path d="M37.6562 16.0938H36.875V12.5781C36.875 10.8548 35.4727 9.45312 33.75 9.45312C33.1476 9.45312 32.5842 9.62433 32.1069 9.92096C31.7874 8.53516 30.5429 7.5 29.0625 7.5H29.0616C27.3392 7.5 25.9366 8.90167 25.9366 10.625V16.0938H14.0634V10.625C14.0634 8.90167 12.6608 7.5 10.9375 7.5C9.45709 7.5 8.21259 8.53516 7.89307 9.92096C7.41577 9.62433 6.85242 9.45312 6.25 9.45312C4.52728 9.45312 3.125 10.8548 3.125 12.5781V16.0938H2.34375C1.05164 16.0938 0 17.1454 0 18.4375V21.5625C0 22.8546 1.05164 23.9062 2.34375 23.9062H3.125V27.4219C3.125 29.1452 4.52728 30.5469 6.25 30.5469C6.85242 30.5469 7.41577 30.3757 7.89307 30.079C8.21259 31.4648 9.45709 32.5 10.9375 32.5H10.9384C12.6608 32.5 14.0634 31.0983 14.0634 29.375V23.9062H25.9366V29.375C25.9366 31.0983 27.3392 32.5 29.0625 32.5C30.5429 32.5 31.7874 31.4648 32.1069 30.079C32.5842 30.3757 33.1476 30.5469 33.75 30.5469C35.4727 30.5469 36.875 29.1452 36.875 27.4219V23.9062H37.6562C38.9484 23.9062 40 22.8546 40 21.5625V18.4375C40 17.1454 38.9484 16.0938 37.6562 16.0938ZM3.125 22.3438H2.34375C1.91315 22.3438 1.5625 21.9931 1.5625 21.5625V18.4375C1.5625 18.0069 1.91315 17.6562 2.34375 17.6562H3.125V22.3438ZM7.8125 27.4219C7.8125 27.8531 7.63763 28.2437 7.35474 28.5266C7.07184 28.8095 6.68121 28.9844 6.25 28.9844C5.38818 28.9844 4.6875 28.2837 4.6875 27.4219V12.5781C4.6875 11.7163 5.38818 11.0156 6.25 11.0156C7.11182 11.0156 7.8125 11.7163 7.8125 12.5781V27.4219ZM12.5009 29.375C12.5009 30.2368 11.7993 30.9375 10.9384 30.9375H10.9375C10.0766 30.9375 9.375 30.2368 9.375 29.375V10.625C9.375 9.76318 10.0766 9.0625 10.9384 9.0625C11.7993 9.0625 12.5009 9.76318 12.5009 10.625V29.375ZM25.932 19.2188H20.4688C20.0375 19.2188 19.6875 19.5688 19.6875 20C19.6875 20.4312 20.0375 20.7812 20.4688 20.7812H25.932V22.3438H14.0594V17.6562H25.932V19.2188ZM30.625 29.375C30.625 30.2368 29.9234 30.9375 29.0616 30.9375C28.2007 30.9375 27.4991 30.2368 27.4991 29.375V20.04C27.4985 20.0571 27.4969 20.0742 27.4945 20.0906V19.9094C27.4969 19.9258 27.4985 19.9429 27.4991 19.96V10.625C27.4991 9.76318 28.2007 9.0625 29.0616 9.0625H29.0625C29.9234 9.0625 30.625 9.76318 30.625 10.625V29.375ZM35.3125 27.4219C35.3125 28.2837 34.6118 28.9844 33.75 28.9844C32.8882 28.9844 32.1875 28.2837 32.1875 27.4219V12.5781C32.1875 11.7163 32.8882 11.0156 33.75 11.0156C34.6118 11.0156 35.3125 11.7163 35.3125 12.5781V27.4219ZM38.4375 21.5625C38.4375 21.9931 38.0869 22.3438 37.6562 22.3438H36.875V17.6562H37.6562C38.0869 17.6562 38.4375 18.0069 38.4375 18.4375V21.5625Z" fill="black"/>
<path d="M17.3455 20.7812C16.914 20.7812 16.564 20.4315 16.564 20C16.564 19.5685 16.9134 19.2188 17.3449 19.2188H17.3455C17.777 19.2188 18.1268 19.5685 18.1268 20C18.1268 20.4315 17.777 20.7812 17.3455 20.7812Z" fill="black"/>
</g>
<defs>
<clipPath id="clip0">
<rect width="40" height="40" fill="white"/>
</clipPath>
</defs>
</svg>
