<svg width="35" height="35" viewBox="0 0 35 35" fill="none" xmlns="http://www.w3.org/2000/svg">
<g clip-path="url(#clip0)">
<path d="M17.5 35C27.165 35 35 27.165 35 17.5C35 7.83502 27.165 0 17.5 0C7.83502 0 0 7.83502 0 17.5C0 27.165 7.83502 35 17.5 35Z" fill="url(#paint0_linear)"/>
<path d="M17.4971 4.57766C12.2019 4.57766 7.17356 4.10662 5.25293 9.03578C4.4596 11.0716 4.57481 13.7156 4.57481 17.5014C4.57481 20.8235 4.46835 23.9458 5.25293 25.9656C7.16918 30.8977 12.2383 30.4252 17.4942 30.4252C22.5648 30.4252 27.7929 30.9531 29.7369 25.9656C30.5317 23.9093 30.415 21.3047 30.415 17.5014C30.415 12.4527 30.6936 9.19328 28.245 6.7462C25.7658 4.26703 22.4131 4.57766 17.4913 4.57766H17.4971ZM16.3392 6.90662C27.3846 6.88912 28.7904 5.6612 28.0146 22.7193C27.739 28.7525 23.1452 28.0904 17.4986 28.0904C7.20272 28.0904 6.90668 27.7958 6.90668 17.4956C6.90668 7.07578 7.72335 6.91245 16.3392 6.9037V6.90662ZM24.395 9.05182C23.539 9.05182 22.8448 9.74599 22.8448 10.602C22.8448 11.4581 23.539 12.1522 24.395 12.1522C25.2511 12.1522 25.9452 11.4581 25.9452 10.602C25.9452 9.74599 25.2511 9.05182 24.395 9.05182ZM17.4971 10.8645C13.8323 10.8645 10.8617 13.8366 10.8617 17.5014C10.8617 21.1662 13.8323 24.1368 17.4971 24.1368C21.1619 24.1368 24.1311 21.1662 24.1311 17.5014C24.1311 13.8366 21.1619 10.8645 17.4971 10.8645ZM17.4971 13.1935C23.1919 13.1935 23.1992 21.8093 17.4971 21.8093C11.8038 21.8093 11.795 13.1935 17.4971 13.1935Z" fill="white"/>
</g>
<defs>
<linearGradient id="paint0_linear" x1="2.34996" y1="32.7198" x2="34.7798" y2="4.64655" gradientUnits="userSpaceOnUse">
<stop stop-color="#FFDD55"/>
<stop offset="0.5" stop-color="#FF543E"/>
<stop offset="1" stop-color="#C837AB"/>
</linearGradient>
<clipPath id="clip0">
<rect width="35" height="35" fill="white"/>
</clipPath>
</defs>
</svg>
