<svg width="200" height="200" viewBox="0 0 200 200" fill="none" xmlns="http://www.w3.org/2000/svg">
<g clip-path="url(#clip0)">
<path d="M7.06847 115.476L9.56327 117.139C9.56327 117.139 10.8107 117.971 11.2266 118.386C11.6425 118.802 13.3055 120.05 14.5529 120.465C15.3843 120.465 16.2162 120.881 16.6317 122.129C16.6317 122.129 20.3739 124.624 20.7899 125.455C20.7899 126.286 22.0373 126.702 22.8687 127.118C23.7002 127.118 36.1742 125.455 43.2431 122.545C50.3119 119.634 54.0538 118.802 54.0538 118.802C54.0538 118.802 56.5486 118.387 56.9645 116.308C57.3804 114.229 62.37 101.339 63.2015 97.5966C64.033 93.8544 65.2804 86.37 65.2804 86.37C65.2804 86.37 67.3592 74.7275 75.2596 73.4801C83.1599 72.2327 89.3969 68.9064 89.3969 68.9064C89.3969 68.9064 91.8917 67.659 92.3076 63.9168C92.7236 60.5905 92.7236 58.9272 92.7236 58.9272L109.356 57.6798C109.356 57.6798 109.356 67.2431 113.514 69.3223C117.672 71.4012 128.483 75.9753 128.483 75.9753C128.483 75.9753 131.809 76.8067 133.472 81.7963C135.136 86.7859 136.798 98.844 136.798 98.844L140.957 117.555C140.957 117.555 141.373 120.05 143.451 120.881C145.53 121.297 159.252 125.871 162.162 127.118C165.073 127.95 173.805 129.613 174.636 129.613C175.468 129.613 177.547 129.613 177.963 128.782C178.378 127.95 181.289 126.703 181.289 126.703L182.952 125.039C182.952 125.039 187.526 124.623 188.358 123.792C189.189 122.961 190.437 123.376 190.437 123.376L193.347 122.545C193.347 122.545 194.179 125.871 189.605 126.703C189.605 126.703 186.695 127.95 186.279 128.782C186.279 129.613 187.11 131.276 187.526 131.276C187.942 131.276 190.853 131.692 191.685 132.108C191.685 132.108 192.1 130.861 193.763 130.445C193.763 130.445 193.347 128.781 194.179 127.534C192.516 125.455 192.516 124.208 194.179 123.376L196.258 126.702V127.949C196.258 127.949 196.258 127.118 197.922 127.118L198.337 127.534C198.337 127.534 198.337 126.286 200.001 126.702L199.169 130.86L198.338 132.108V133.355L197.09 136.682C197.09 136.682 192.932 137.929 191.685 137.513C191.685 137.513 193.764 138.345 193.764 138.76C193.764 138.76 195.011 138.345 195.427 138.76C195.427 138.76 197.506 136.682 199.169 138.345L196.674 140.423L192.932 141.255L189.19 139.176C189.19 139.176 186.695 138.345 185.032 137.929C183.369 137.929 177.964 137.097 177.964 137.097C177.964 137.097 174.637 137.097 173.39 136.681C173.39 136.681 148.026 135.85 140.957 133.77C140.957 133.77 139.294 133.355 138.047 133.355C136.799 133.355 135.136 133.355 134.304 131.276C133.473 129.612 125.573 110.901 125.573 110.901L76.9241 98.8432C76.9241 98.8432 77.7555 110.486 67.7763 125.039C67.7763 125.039 65.6975 127.949 65.6975 128.781C65.2815 129.612 64.4501 131.276 61.9553 131.276C59.4605 131.276 47.8179 135.018 33.265 135.018C33.265 135.018 27.444 134.602 26.1966 135.018C25.3651 135.434 21.6229 135.434 19.5436 135.018L13.3066 134.602C13.3066 134.602 10.3959 134.602 8.73297 134.186H4.57367C4.57367 134.186 2.07887 131.691 1.66294 130.444L0.83147 128.365C0.83147 128.365 0.83147 127.949 1.2474 127.949L0 120.881C0 120.881 0 120.05 0.41593 119.634L0.83186 117.139C0.83186 117.139 2.91073 117.139 2.49519 119.634L3.32666 117.971L5.82146 115.476C5.82146 115.476 8.31626 117.139 4.98999 119.634C4.98999 119.634 5.40592 121.713 4.57406 122.96C4.57406 122.96 6.23739 124.208 6.23739 125.039C6.23739 125.039 9.56366 125.039 9.97959 125.455C9.97959 125.455 11.6429 123.792 11.6429 123.376C11.6429 122.96 10.8115 122.129 10.8115 122.129C10.8115 122.129 9.14812 121.297 8.73258 120.465C6.237 119.218 5.82107 117.139 7.06847 115.476Z" fill="#F5B54C"/>
<path d="M101.455 26.9103C103.752 26.9103 105.614 25.0487 105.614 22.7522C105.614 20.4557 103.752 18.5941 101.455 18.5941C99.159 18.5941 97.2974 20.4557 97.2974 22.7522C97.2974 25.0487 99.159 26.9103 101.455 26.9103Z" fill="#425A6B"/>
<path d="M97.2973 62.669C86.4867 57.6794 88.1496 42.2947 88.5655 39.3843C88.5655 38.9684 88.5655 38.5528 88.5655 38.5528C88.1496 29.4051 98.9607 29.4051 100.624 29.821H101.04C103.118 29.821 113.514 29.4051 113.098 38.9688C113.098 39.3847 113.098 39.8002 113.098 39.8002C113.514 42.711 115.176 57.6798 104.366 63.0849C102.703 63.9164 99.7921 63.9164 97.2973 62.669Z" fill="#FFD15C"/>
<path d="M96.0499 32.3158C96.0499 32.3158 102.703 33.5632 104.366 31.8999C106.445 30.2366 111.019 33.5633 111.434 36.8895C111.85 40.2158 113.929 45.6213 113.929 45.6213L114.761 45.2054C114.761 45.2054 115.592 36.4736 113.513 31.484C111.85 26.4944 107.692 21.9207 101.871 21.9207C96.0495 21.9207 89.3966 25.247 87.3177 30.6525C85.2389 36.0581 88.1492 46.0373 88.1492 46.0373H88.9807C88.9815 46.0373 88.5655 31.0684 96.0499 32.3158Z" fill="#425A6B"/>
<path d="M116.43 47.1167C116.772 44.1513 116.124 41.6407 114.984 41.5092C113.843 41.3778 112.641 43.6752 112.3 46.6407C111.958 49.6061 112.605 52.1167 113.746 52.2482C114.886 52.3796 116.088 50.0822 116.43 47.1167Z" fill="#FFD15C"/>
<path d="M85.8006 47.5093C86.1424 50.4748 87.3441 52.7722 88.4846 52.6407C89.6252 52.5093 90.2727 49.9987 89.9309 47.0332C89.5891 44.0677 88.3874 41.7703 87.2469 41.9018C86.1063 42.0332 85.4588 44.5438 85.8006 47.5093Z" fill="#FFD15C"/>
<path d="M103.95 16.9312C103.95 17.3471 103.95 17.7626 103.95 17.7626L103.119 18.1786C103.119 18.5945 102.703 18.5945 102.703 19.01C101.871 20.2574 101.455 22.7522 102.287 24.8311C102.287 25.247 102.703 26.0785 102.703 26.4944V26.9104C102.703 26.9104 103.95 26.9104 103.119 26.9104L103.535 27.7418C103.95 28.1578 104.366 28.5733 104.782 28.9892L105.198 29.4052C105.198 29.4052 106.029 29.4052 105.614 29.4052L106.029 29.8211C107.692 31.0685 108.108 32.3159 108.108 32.7318C108.108 33.5633 108.108 33.5633 108.108 33.5633C108.108 33.5633 107.692 33.1474 106.444 33.1474C106.029 33.1474 105.197 33.5633 104.781 33.5633C104.365 33.5633 103.95 33.5633 103.95 33.9792C103.534 33.9792 103.118 33.9792 102.702 34.3951C101.039 34.8111 99.376 34.8111 98.1286 34.3951C96.4653 33.9792 95.6338 33.5637 95.6338 33.9792L103.95 16.9312Z" fill="#425A6B"/>
<path d="M88.9812 46.0373C88.9812 46.0373 88.9812 36.0581 93.5549 32.7318C93.5549 32.7318 99.3759 38.5529 110.603 36.474C110.603 36.474 112.681 44.7899 113.513 46.8691L112.266 33.5633L105.613 26.0789L95.6337 28.9896C95.6337 28.9892 86.9019 32.7314 88.9812 46.0373Z" fill="#425A6B"/>
<path d="M123.493 134.187C125.571 137.929 126.403 147.077 126.403 147.077C97.2971 164.124 72.7651 144.166 72.7651 144.166C72.7651 144.166 71.9336 141.255 72.7651 139.592C73.5965 137.513 76.9232 128.366 77.7546 125.455C78.5861 122.544 76.9232 117.971 77.7546 116.723C78.5861 115.06 79.002 113.812 78.1706 112.981C77.3391 112.15 76.9232 112.15 76.0917 111.318C75.6758 110.486 77.3391 109.239 76.5076 107.16C75.6762 105.081 76.0917 97.5963 76.0917 97.5963C76.0917 97.5963 75.6758 93.4381 78.1706 90.1119C80.2494 86.7856 80.6654 79.3012 79.8339 77.2219C79.418 75.9745 79.0024 74.3112 79.0024 72.6482C79.8339 71.8168 80.6658 71.8168 81.9132 71.8168C83.1606 74.7275 86.0713 81.3801 87.3187 83.8749C88.982 87.2011 91.0609 89.2804 96.0505 90.9433C100.624 92.6067 109.772 92.6067 114.346 90.9433C118.504 89.28 120.583 79.7167 121.83 75.9745C122.246 74.3112 122.246 73.0638 122.246 72.6482C123.493 72.6482 125.157 73.0642 125.988 74.3116C124.741 79.7171 125.572 87.617 126.82 95.9333C128.067 104.249 126.404 110.071 125.156 112.15C124.325 114.228 122.661 125.455 122.661 125.455C122.661 125.455 121.414 130.445 123.493 134.187Z" fill="#E8EAE8"/>
<path d="M143.035 147.077L143.451 149.156C143.451 149.156 143.035 150.403 139.709 150.819C136.383 151.235 132.224 152.898 132.224 152.898L130.977 153.314L113.929 159.551L103.95 158.719C103.95 158.719 105.198 154.146 113.098 152.066C120.998 149.987 120.166 146.661 124.74 146.245C129.314 145.829 141.788 145.413 143.035 147.077Z" fill="#67C5B8"/>
<path d="M103.95 158.719C103.95 158.719 104.782 156.224 107.692 155.393C110.187 154.977 116.008 152.482 118.503 150.819C120.582 149.156 124.324 146.661 128.482 147.077C132.64 147.493 141.788 147.908 143.451 149.571C143.451 149.571 143.867 147.493 143.451 146.245C143.451 146.245 130.561 142.503 124.324 144.998C124.324 144.998 123.077 145.829 122.245 146.245C121.414 146.661 115.592 150.819 111.85 151.235C107.692 152.066 103.118 153.73 102.287 155.393C101.455 157.056 103.95 158.719 103.95 158.719Z" fill="#425A6B"/>
<path d="M68.191 163.293C68.191 163.293 76.9228 157.887 82.3283 159.135C87.7339 159.966 89.3968 160.382 89.3968 160.382L115.176 170.361C115.176 170.361 115.176 172.44 108.523 173.688C102.286 174.519 86.0701 179.925 86.0701 179.925C86.0701 179.925 72.3487 184.083 65.2803 182.835C69.0229 175.351 70.6858 168.698 68.191 163.293Z" fill="#F5B54C"/>
<path d="M160.083 171.609C157.173 174.52 152.599 176.182 148.441 177.014C144.283 177.846 140.956 177.846 140.956 177.846C140.956 177.846 138.462 172.44 138.046 164.956C137.63 157.471 137.63 157.056 137.63 157.056L138.877 154.977L130.561 153.313L130.977 152.897L132.225 152.481C132.225 152.481 136.383 150.818 139.709 150.403C140.956 150.403 141.788 149.987 142.204 149.571C145.946 150.403 150.52 151.234 151.352 151.65C153.846 152.897 160.499 155.808 161.747 159.55C163.41 164.54 163.41 168.698 160.083 171.609Z" fill="#425A6B"/>
<path d="M81.4971 157.887L71.102 163.708C71.102 163.708 71.102 178.261 65.6965 182.419C65.6965 182.419 59.0435 184.083 55.3013 182.004C55.3013 182.004 54.0539 182.004 53.2225 182.004C53.2225 182.004 46.5695 177.014 45.3221 172.024C44.0747 166.619 48.6484 161.214 51.5591 159.134C54.4699 156.64 64.0331 152.066 69.4387 152.481C74.0127 152.898 81.0812 157.471 81.4971 157.887Z" fill="#425A6B"/>
<path d="M80.665 154.977L82.7439 158.719C82.7439 158.719 87.7335 160.382 89.3968 161.63C91.0602 162.877 97.7127 167.035 102.287 168.283C107.276 169.53 120.998 173.272 123.077 174.52C125.156 175.351 135.135 180.341 142.619 178.262L140.54 156.224C140.54 156.224 132.64 151.235 117.256 154.561C117.256 154.561 107.276 155.809 101.871 155.809C96.4653 155.393 96.4653 155.393 96.4653 155.393L86.0702 151.65L80.665 154.977Z" fill="#FFD15C"/>
<path d="M92.7235 147.077L95.2183 149.156L96.0498 154.977C96.0498 154.977 91.0602 154.561 87.7339 152.898C84.4076 151.234 81.081 156.64 82.3284 158.303C82.3284 158.303 76.9228 158.303 74.0125 154.977C71.5177 153.314 69.4388 152.898 69.4388 152.898C69.4388 152.898 64.4492 152.067 62.7859 152.482C60.707 152.898 56.1329 151.235 55.7174 150.403C55.3015 149.572 59.4596 142.087 64.8651 140.84C70.2707 139.593 72.3495 140.424 73.5969 140.84C74.8443 141.256 78.1706 144.166 82.7447 144.582C87.7339 145.829 92.7235 147.077 92.7235 147.077Z" fill="#48B9A5"/>
<path d="M56.1331 151.234C56.1331 151.234 54.8857 150.818 54.4697 149.156C54.4697 148.324 54.4697 147.908 54.8857 147.492C56.1331 146.245 59.0438 143.334 61.9541 142.087C65.6963 140.839 68.1911 139.176 71.5174 140.423C71.5174 140.423 77.3385 144.166 80.6651 144.581C83.5759 144.997 92.3077 145.413 93.5551 146.66C94.8025 147.908 95.2184 149.987 95.2184 149.987C95.2184 149.987 93.1395 148.323 90.6447 147.908C87.734 147.492 83.1603 147.076 82.3289 146.66C81.0815 146.244 78.5866 145.413 76.9233 144.581C75.26 143.75 73.1811 141.671 70.6863 142.087C68.6074 142.503 63.2019 144.581 62.3704 145.413C61.1227 144.997 56.549 147.908 56.1331 151.234Z" fill="#425A6B"/>
</g>
<defs>
<clipPath id="clip0">
<rect width="200" height="200" fill="white"/>
</clipPath>
</defs>
</svg>
