<svg width="35" height="36" viewBox="0 0 35 36" fill="none" xmlns="http://www.w3.org/2000/svg">
<g clip-path="url(#clip0)">
<path d="M17.5008 35.2411C27.1657 35.2411 35.0007 27.4062 35.0007 17.7413C35.0007 8.0764 27.1657 0.241455 17.5008 0.241455C7.83595 0.241455 0.00100708 8.0764 0.00100708 17.7413C0.00100708 27.4062 7.83595 35.2411 17.5008 35.2411Z" fill="#42AAFF"/>
<path d="M28.2194 12.818C27.4695 13.1505 26.6628 13.3755 25.8168 13.4759C26.6806 12.9584 27.3435 12.1395 27.6563 11.1622C26.8481 11.6416 25.9525 11.9895 25.0001 12.1769C24.237 11.3643 23.1499 10.8564 21.9461 10.8564C19.6364 10.8564 17.7631 12.7297 17.7631 15.0394C17.7631 15.3673 17.8002 15.6864 17.872 15.9927C14.3956 15.8183 11.3132 14.1531 9.24997 11.6217C8.88998 12.2393 8.68346 12.9584 8.68346 13.7248C8.68346 15.1757 9.42248 16.4566 10.5443 17.2065C9.8589 17.185 9.21347 16.9969 8.64977 16.6828C8.64946 16.7005 8.64946 16.7183 8.64946 16.7358C8.64946 18.7625 10.0919 20.453 12.0051 20.837C11.6545 20.9331 11.2842 20.9839 10.9033 20.9839C10.6332 20.9839 10.3714 20.958 10.1163 20.9094C10.6484 22.5708 12.1929 23.7803 14.0238 23.8143C12.5919 24.9364 10.7885 25.6049 8.82821 25.6049C8.4913 25.6049 8.15752 25.5852 7.8309 25.5462C9.68109 26.7335 11.8803 27.4257 14.2424 27.4257C21.9364 27.4257 26.144 21.0519 26.144 15.5239C26.144 15.3426 26.1399 15.162 26.1318 14.9829C26.9498 14.3933 27.6588 13.6568 28.2194 12.818Z" fill="white"/>
</g>
<defs>
<clipPath id="clip0">
<rect width="35" height="35" fill="white" transform="translate(0 0.241455)"/>
</clipPath>
</defs>
</svg>
