<svg width="35" height="35" viewBox="0 0 35 35" fill="none" xmlns="http://www.w3.org/2000/svg">
<path d="M17.5 35C27.165 35 35 27.165 35 17.5C35 7.83502 27.165 0 17.5 0C7.83502 0 0 7.83502 0 17.5C0 27.165 7.83502 35 17.5 35Z" fill="#4D76A1"/>
<path fill-rule="evenodd" clip-rule="evenodd" d="M16.839 25.1753H18.2125C18.2125 25.1753 18.6274 25.1298 18.8392 24.9014C19.0342 24.6918 19.028 24.2981 19.028 24.2981C19.028 24.2981 19.0011 22.4551 19.8565 22.1837C20.6997 21.9163 21.7825 23.9649 22.9302 24.7526C23.798 25.3487 24.4575 25.218 24.4575 25.218L27.5262 25.1753C27.5262 25.1753 29.1315 25.0764 28.3704 23.8142C28.308 23.711 27.9271 22.8806 26.0887 21.1742C24.1646 19.3882 24.4223 19.6771 26.7401 16.5878C28.1517 14.7064 28.716 13.5578 28.5397 13.0659C28.3716 12.5973 27.3334 12.7212 27.3334 12.7212L23.8782 12.7427C23.8782 12.7427 23.6221 12.7077 23.4321 12.8213C23.2465 12.9327 23.127 13.1922 23.127 13.1922C23.127 13.1922 22.5802 14.6481 21.8508 15.8862C20.3123 18.4989 19.6971 18.6367 19.4457 18.4745C18.8607 18.0964 19.0067 16.9556 19.0067 16.1452C19.0067 13.6133 19.3908 12.5577 18.259 12.2844C17.8834 12.1936 17.607 12.1337 16.6465 12.1241C15.4137 12.1113 14.3702 12.1278 13.7793 12.4173C13.3863 12.6098 13.083 13.0387 13.2677 13.0634C13.4961 13.0939 14.0133 13.2028 14.2875 13.5762C14.6416 14.0579 14.6291 15.1397 14.6291 15.1397C14.6291 15.1397 14.8325 18.1201 14.154 18.4904C13.6882 18.7444 13.0494 18.2259 11.6777 15.8557C10.9749 14.6415 10.4442 13.2995 10.4442 13.2995C10.4442 13.2995 10.3419 13.0487 10.1594 12.9146C9.93792 12.752 9.62847 12.7003 9.62847 12.7003L6.34515 12.7218C6.34515 12.7218 5.85226 12.7355 5.67133 12.9498C5.51036 13.1404 5.65854 13.5347 5.65854 13.5347C5.65854 13.5347 8.22904 19.5486 11.1396 22.5792C13.8083 25.3578 16.839 25.1753 16.839 25.1753Z" fill="white"/>
</svg>
