<svg width="40" height="36" viewBox="0 0 40 36" fill="none" xmlns="http://www.w3.org/2000/svg">
<path d="M19.9303 2.65743C23.6893 2.65483 27.3168 4.0403 30.1169 6.54804L31.003 5.55799C27.9579 2.83444 24.0158 1.32874 19.9303 1.32874C15.8449 1.32874 11.9028 2.83444 8.85767 5.55799L9.74375 6.54804C12.5439 4.04028 16.1714 2.6548 19.9303 2.65743Z" fill="black"/>
<path d="M19.9305 33.2176C17.7627 33.2167 15.6199 32.755 13.6441 31.863C11.6684 30.9711 9.90481 29.6693 8.4704 28.0439L7.47388 28.9232C9.03252 30.6904 10.9494 32.1058 13.097 33.0752C15.2447 34.0447 17.5741 34.5461 19.9305 34.5461C22.2868 34.5461 24.6162 34.0447 26.7639 33.0752C28.9116 32.1058 30.8284 30.6904 32.3871 28.9232L31.3905 28.0439C29.9561 29.6693 28.1926 30.9711 26.2168 31.863C24.2411 32.755 22.0982 33.2167 19.9305 33.2176Z" fill="black"/>
<path d="M31.0683 16.0543C31.1723 16.6766 31.2246 17.3065 31.2245 17.9374C31.2255 19.0858 31.0507 20.2275 30.7062 21.3229C30.4631 21.0179 30.1566 20.7695 29.8079 20.5949C28.9177 20.1449 27.976 19.8052 27.0036 19.583C28.2112 18.5084 28.9857 17.0305 29.1822 15.426C29.3786 13.8214 28.9835 12.2003 28.0708 10.8661C27.1581 9.53186 25.7904 8.57606 24.2237 8.17762C22.6571 7.77918 20.9989 7.96541 19.5597 8.70146C19.189 8.3806 18.7452 8.15585 18.2672 8.04704C17.7892 7.93824 17.2917 7.94871 16.8187 8.07754C16.3457 8.20637 15.9117 8.44959 15.5549 8.78577C15.1981 9.12195 14.9295 9.54075 14.7728 10.0052C14.3447 9.93491 13.9065 9.95844 13.4884 10.0742C13.0703 10.19 12.6824 10.3953 12.3515 10.6758C12.0206 10.9564 11.7547 11.3055 11.5721 11.699C11.3895 12.0925 11.2946 12.521 11.294 12.9548C11.2936 13.3483 11.3713 13.738 11.5226 14.1012C11.4836 14.1218 11.4438 14.1427 11.4034 14.1635C11.0308 14.3573 10.6084 14.577 10.3085 14.9891C10.0109 15.398 9.93188 15.8667 9.86213 16.2802C9.83698 16.4575 9.79958 16.6329 9.75019 16.805C9.6915 16.9647 9.62162 17.1201 9.54108 17.27C9.35074 17.6486 9.13483 18.0779 9.13483 18.6018C9.13483 19.1257 9.35074 19.5549 9.54108 19.9336C9.62162 20.0835 9.69147 20.2389 9.7501 20.3986C9.79949 20.5707 9.83689 20.746 9.86205 20.9233C9.9318 21.3369 10.0109 21.8057 10.3085 22.2147C10.6084 22.6267 11.031 22.8463 11.4034 23.0402C11.5626 23.1175 11.716 23.206 11.8627 23.3049C11.9995 23.4124 12.1286 23.5294 12.249 23.6549C12.5493 23.9519 12.8898 24.2884 13.3808 24.4478C13.8545 24.6017 14.3213 24.5326 14.7332 24.4718C14.914 24.4401 15.0967 24.4211 15.2801 24.4149C15.4635 24.421 15.6462 24.44 15.8269 24.4716C15.8656 24.4772 15.9047 24.4831 15.9444 24.4887C15.8204 24.6902 15.7302 24.9106 15.6771 25.1411C15.6152 25.3856 15.609 25.641 15.659 25.8882C15.7091 26.1354 15.8141 26.3683 15.9663 26.5695C16.5875 27.3741 17.7818 27.588 18.8096 27.076C19.9823 26.4858 21.277 26.1785 22.5899 26.1788C23.9028 26.1791 25.1973 26.4869 26.3698 27.0777C26.4075 27.0965 26.4455 27.1143 26.4837 27.1312C24.5729 28.4996 22.2809 29.2342 19.9305 29.2314C13.7031 29.2314 8.63656 24.165 8.63656 17.9374C8.63656 11.7099 13.7031 6.64346 19.9305 6.64346C22.4057 6.63548 24.8136 7.44834 26.7774 8.95483C28.7009 10.427 30.1043 12.4748 30.7832 14.7999L32.0599 14.4315C31.3013 11.833 29.7332 9.54433 27.5838 7.89876C25.3887 6.21472 22.6972 5.30598 19.9305 5.31476C12.9704 5.31476 7.30786 10.9773 7.30786 17.9374C7.30786 24.8976 12.9704 30.5601 19.9305 30.5601C23.1771 30.5625 26.2989 29.3095 28.6429 27.0631C28.8617 26.9376 29.0538 26.7705 29.2083 26.5711C29.2742 26.4864 29.3314 26.3952 29.379 26.299C31.4263 23.9951 32.5559 21.0195 32.5532 17.9374C32.5533 17.2328 32.495 16.5294 32.3788 15.8344L31.0683 16.0543ZM29.846 22.5095C29.8618 22.5637 29.866 22.6205 29.8583 22.6764C29.8506 22.7323 29.8312 22.7859 29.8014 22.8338C29.5745 23.1277 29.05 23.1853 28.6075 22.9654C26.5328 21.9216 24.1535 21.6533 21.8984 22.2089L21.8861 22.2096V22.212C21.1835 22.3857 20.5028 22.6382 19.8569 22.9647C19.4135 23.1856 18.8885 23.1281 18.6601 22.8322C18.6306 22.7844 18.6116 22.731 18.6041 22.6754C18.5967 22.6198 18.601 22.5632 18.6168 22.5093C18.6666 22.2871 18.8604 21.979 19.2544 21.7802C20.7984 21.0029 22.5029 20.5981 24.2315 20.5981C25.9601 20.5981 27.6647 21.0029 29.2086 21.7802C29.6023 21.9791 29.7962 22.2873 29.846 22.5095ZM27.9028 14.6157C27.9046 15.5773 27.6448 16.5214 27.1512 17.3466C26.6575 18.1719 25.9486 18.8473 25.1004 19.3004C23.7748 19.2076 22.4428 19.3277 21.1551 19.6563C21.3228 19.3294 21.4151 18.9691 21.4253 18.6018C21.4253 18.0779 21.2094 17.6487 21.0191 17.27C20.9385 17.1201 20.8687 16.9647 20.8101 16.805C20.7815 16.713 20.7586 16.6194 20.7413 16.5247C21.1819 16.9503 21.7561 17.2105 22.3666 17.2613C22.9771 17.3121 23.5864 17.1503 24.0912 16.8033C24.5961 16.4563 24.9655 15.9454 25.1368 15.3573C25.3082 14.7691 25.271 14.1398 25.0315 13.576C24.792 13.0121 24.365 12.5484 23.8228 12.2633C23.2806 11.9782 22.6565 11.8893 22.0562 12.0116C21.456 12.134 20.9164 12.4601 20.5291 12.9346C20.1417 13.4092 19.9302 14.0031 19.9305 14.6157C19.9305 14.6259 19.9305 14.6361 19.9305 14.6463C19.6916 14.4567 19.4319 14.2948 19.1566 14.1636C18.9974 14.0862 18.8439 13.9978 18.6972 13.8988C18.6545 13.8677 18.611 13.8319 18.5666 13.7927C18.9563 13.6604 19.3144 13.449 19.6186 13.1719C19.9228 12.8948 20.1665 12.5578 20.3345 12.1822C20.5024 11.8065 20.591 11.4002 20.5947 10.9887C20.5984 10.5773 20.5171 10.1694 20.3559 9.79083C21.055 9.46576 21.817 9.29849 22.588 9.30087C23.997 9.30245 25.348 9.86291 26.3443 10.8593C27.3407 11.8557 27.9012 13.2066 27.9028 14.6157ZM21.2592 14.6157C21.2592 14.3529 21.3372 14.096 21.4832 13.8775C21.6292 13.659 21.8367 13.4887 22.0795 13.3881C22.3223 13.2876 22.5894 13.2612 22.8472 13.3125C23.1049 13.3638 23.3417 13.4903 23.5275 13.6762C23.7133 13.862 23.8399 14.0987 23.8911 14.3565C23.9424 14.6142 23.9161 14.8814 23.8155 15.1242C23.7149 15.3669 23.5446 15.5745 23.3261 15.7205C23.1076 15.8665 22.8507 15.9444 22.588 15.9444C22.2357 15.944 21.898 15.8038 21.6489 15.5548C21.3998 15.3057 21.2597 14.968 21.2592 14.6157ZM17.6053 9.30087C17.9338 9.30087 18.2549 9.39828 18.528 9.58078C18.8012 9.76328 19.0141 10.0227 19.1398 10.3262C19.2655 10.6296 19.2984 10.9636 19.2343 11.2858C19.1702 11.608 19.012 11.9039 18.7797 12.1362C18.5475 12.3684 18.2515 12.5266 17.9293 12.5907C17.6072 12.6548 17.2732 12.6219 16.9697 12.4962C16.6662 12.3705 16.4068 12.1576 16.2243 11.8845C16.0418 11.6114 15.9444 11.2902 15.9444 10.9618C15.9449 10.5214 16.1201 10.0993 16.4315 9.78789C16.7428 9.47652 17.165 9.30138 17.6053 9.30087ZM14.2836 11.2939C14.4029 11.2938 14.5219 11.3064 14.6386 11.3316C14.6904 11.7446 14.8279 12.1422 15.0421 12.499C15.2563 12.8558 15.5426 13.164 15.8827 13.4039C15.7991 13.7015 15.6341 13.9699 15.4063 14.1789C15.1785 14.3878 14.8968 14.529 14.5931 14.5866C14.2894 14.6442 13.9756 14.6159 13.6871 14.5048C13.3986 14.3938 13.1468 14.2044 12.9601 13.958C12.7733 13.7116 12.6591 13.418 12.6301 13.1103C12.6012 12.8025 12.6587 12.4927 12.7963 12.2159C12.9338 11.939 13.1459 11.706 13.4087 11.5431C13.6714 11.3803 13.9744 11.294 14.2836 11.2939ZM15.2801 23.0862C15.0316 23.0913 14.7838 23.115 14.5388 23.1572C14.2455 23.2005 13.9687 23.2415 13.7914 23.1839C13.6004 23.1218 13.3977 22.9217 13.1834 22.7098C13.0164 22.5365 12.8364 22.3763 12.6449 22.2305C12.4452 22.0916 12.2352 21.9682 12.0168 21.8612C11.7505 21.7228 11.499 21.592 11.3832 21.4328C11.2694 21.2764 11.2224 20.9975 11.1726 20.702C11.1376 20.4603 11.0847 20.2216 11.0142 19.9878C10.9358 19.7636 10.8403 19.5458 10.7285 19.3363C10.5921 19.066 10.4635 18.8105 10.4635 18.6018C10.4635 18.3931 10.5921 18.1375 10.7282 17.8669C10.8401 17.6574 10.9356 17.4396 11.0139 17.2154C11.0844 16.9816 11.1374 16.7429 11.1723 16.5012C11.2221 16.2059 11.2691 15.9271 11.3828 15.7704C11.4991 15.6112 11.7502 15.4804 12.0165 15.342C12.1104 15.2932 12.2057 15.2436 12.3009 15.1902C12.6527 15.5026 13.0734 15.7276 13.5286 15.8466C13.9838 15.9657 14.4608 15.9756 14.9205 15.8754C15.3803 15.7753 15.8099 15.5679 16.1743 15.2703C16.5388 14.9727 16.8278 14.5932 17.0178 14.1627C17.1436 14.266 17.2635 14.3764 17.3769 14.4933C17.5439 14.6665 17.7239 14.8268 17.9153 14.9727C18.1151 15.1115 18.3251 15.235 18.5435 15.342C18.8098 15.4804 19.0613 15.6112 19.1772 15.7704C19.2909 15.9268 19.3379 16.2057 19.3878 16.5012C19.4227 16.7429 19.4756 16.9816 19.5461 17.2154C19.6245 17.4396 19.72 17.6574 19.8318 17.8669C19.9681 18.1376 20.0966 18.3931 20.0966 18.6018C20.0966 18.8105 19.9681 19.0661 19.832 19.3367C19.7201 19.5462 19.6246 19.764 19.5463 19.9881C19.5232 20.0592 19.5024 20.1329 19.4827 20.2138C19.2032 20.3301 18.9275 20.4569 18.6555 20.5943C17.9706 20.9397 17.4717 21.5465 17.3206 22.2174C17.2762 22.4101 17.2626 22.6085 17.2801 22.8053C17.1014 22.9797 16.9313 23.1313 16.7691 23.1839C16.5916 23.2415 16.3147 23.2005 16.0217 23.1572C15.7766 23.115 15.5287 23.0913 15.2801 23.0862ZM26.9659 25.89C25.6085 25.2065 24.1098 24.8503 22.5899 24.85C21.0701 24.8497 19.5713 25.2053 18.2135 25.8882C17.7702 26.1091 17.2452 26.0518 17.0168 25.7554C16.9873 25.7076 16.9683 25.6541 16.9608 25.5985C16.9533 25.5429 16.9576 25.4863 16.9734 25.4324C17.0233 25.2103 17.2171 24.9022 17.611 24.7034C17.9053 24.5546 18.2085 24.4181 18.5162 24.296C18.8323 24.4032 19.1667 24.4457 19.4995 24.4209C19.8323 24.3962 20.1567 24.3046 20.4534 24.1517C20.9779 23.8865 21.5291 23.6778 22.0977 23.5289C22.4699 23.5124 22.8428 23.5147 23.2149 23.5357C24.7303 23.6194 26.2118 24.0171 27.5654 24.7035C27.959 24.9022 28.1526 25.21 28.2026 25.4326C28.2159 25.4892 28.2201 25.5475 28.215 25.6054C28.1026 25.7267 27.9877 25.8456 27.8701 25.9619C27.7223 26.011 27.5661 26.03 27.4107 26.0176C27.2554 26.0053 27.1042 25.9619 26.9659 25.89Z" fill="black"/>
<path d="M38.5324 0V6.64352H36.5394V0H35.2107V6.64352H33.2176V0H31.8889V10.9618C31.8897 11.5104 32.084 12.0411 32.4377 12.4604C32.7914 12.8797 33.2818 13.1607 33.8223 13.2538L33.2219 33.0663C33.2191 33.1161 33.2176 33.1668 33.2176 33.2174C33.2176 33.9222 33.4976 34.5981 33.996 35.0965C34.4943 35.5949 35.1702 35.8748 35.875 35.8748C36.5798 35.8748 37.2557 35.5949 37.7541 35.0965C38.2525 34.5981 38.5324 33.9222 38.5324 33.2174C38.5324 33.1668 38.5309 33.1163 38.5281 33.0663L38.3913 28.547L37.0632 28.5872L37.2004 33.1159C37.2004 33.1226 37.2009 33.1292 37.2013 33.1359C37.2029 33.1629 37.2038 33.1902 37.2038 33.2176C37.2038 33.57 37.0638 33.9079 36.8146 34.1571C36.5655 34.4063 36.2275 34.5463 35.8751 34.5463C35.5227 34.5463 35.1848 34.4063 34.9356 34.1571C34.6864 33.9079 34.5464 33.57 34.5464 33.2176C34.5464 33.1902 34.5473 33.1629 34.5489 33.1359C34.5493 33.1292 34.5496 33.1226 34.5498 33.1159L35.1506 13.287H36.5994L37.0229 27.2585L38.351 27.2183L37.9275 13.254C38.4681 13.1609 38.9586 12.8799 39.3123 12.4605C39.6661 12.0412 39.8604 11.5104 39.8611 10.9618V0H38.5324ZM38.5324 10.9618C38.5321 11.226 38.4271 11.4793 38.2402 11.6661C38.0534 11.853 37.8001 11.958 37.5359 11.9583H34.2141C33.9499 11.958 33.6966 11.853 33.5098 11.6661C33.323 11.4793 33.2179 11.226 33.2176 10.9618V7.97222H38.5324V10.9618Z" fill="black"/>
<path d="M6.01654 12.5182C7.30372 11.4129 8.16206 9.22137 8.16206 6.64352C8.16206 2.91817 6.36947 0 4.08103 0C1.79259 0 0 2.91817 0 6.64352C0 9.09606 0.776959 11.1988 1.96083 12.3493L1.81219 17.2531L3.14022 17.2932L3.26554 13.1598C3.73265 13.3093 4.23186 13.3274 4.70859 13.2123L5.31174 33.1159C5.31174 33.1225 5.31224 33.1292 5.31266 33.1358C5.31423 33.1628 5.31515 33.1901 5.31515 33.2175C5.31515 33.5699 5.17516 33.9079 4.92598 34.157C4.6768 34.4062 4.33884 34.5462 3.98644 34.5462C3.63405 34.5462 3.29609 34.4062 3.04691 34.157C2.79773 33.9079 2.65774 33.5699 2.65774 33.2175C2.65774 33.1901 2.65865 33.1628 2.66023 33.1358C2.66023 33.1292 2.66098 33.1225 2.66114 33.1159L3.10028 18.6219L1.77224 18.5817L1.33302 33.0665C1.3302 33.1163 1.3287 33.1669 1.3287 33.2176C1.3287 33.9224 1.60868 34.5983 2.10704 35.0967C2.6054 35.595 3.28132 35.875 3.98611 35.875C4.6909 35.875 5.36682 35.595 5.86518 35.0967C6.36354 34.5983 6.64352 33.9224 6.64352 33.2176C6.64352 33.1669 6.64202 33.1164 6.6392 33.0665L6.01654 12.5182ZM1.3287 6.64352C1.3287 3.46435 2.75183 1.3287 4.08103 1.3287C5.41023 1.3287 6.83336 3.46435 6.83336 6.64352C6.83336 9.82269 5.41015 11.9583 4.08103 11.9583C2.75191 11.9583 1.3287 9.82269 1.3287 6.64352Z" fill="black"/>
<path d="M12.657 17.0631L11.9927 19.0562L13.2533 19.4763L13.9176 17.4833L12.657 17.0631Z" fill="black"/>
<path d="M16.3986 19.9647L14.4055 20.629L14.8257 21.8895L16.8187 21.2252L16.3986 19.9647Z" fill="black"/>
<path d="M16.313 16.7204L15.5759 17.8259L17.569 19.1546L18.306 18.0491L16.313 16.7204Z" fill="black"/>
</svg>
