<svg height="512pt" viewBox="0 0 512 512" width="512pt" xmlns="http://www.w3.org/2000/svg" xmlns:xlink="http://www.w3.org/1999/xlink"><linearGradient id="a" gradientUnits="userSpaceOnUse" x1="255.9998561073" x2="255.9998561073" y1="0" y2="511.9997122146"><stop offset="0" stop-color="#2af598"/><stop offset="1" stop-color="#009efd"/></linearGradient><path d="m302.058594 0c-115.761719 0-209.941406 94.179688-209.941406 209.941406 0 50.695313 18.0625 97.253906 48.089843 133.574219l-140.207031 140.207031 28.277344 28.277344 140.207031-140.210938c36.320313 30.03125 82.878906 48.09375 133.574219 48.09375 115.761718 0 209.941406-94.179687 209.941406-209.941406 0-115.761718-94.179688-209.941406-209.941406-209.941406zm0 379.894531c-93.710938 0-169.953125-76.242187-169.953125-169.953125 0-93.710937 76.242187-169.953125 169.953125-169.953125 93.710937 0 169.953125 76.242188 169.953125 169.953125 0 93.710938-76.242188 169.953125-169.953125 169.953125zm95.433594-237.109375-67.15625 67.15625 67.15625 67.15625-28.277344 28.277344-67.15625-67.15625-67.15625 67.15625-28.277344-28.277344 67.15625-67.15625-67.15625-67.15625 28.277344-28.277344 67.15625 67.15625 67.15625-67.15625zm0 0" fill="url(#a)"/></svg>