<svg width="187" height="141" viewBox="0 0 187 141" fill="none" xmlns="http://www.w3.org/2000/svg">
<path fill-rule="evenodd" clip-rule="evenodd" d="M175.159 116.834V47.2787C175.159 44.2042 173.929 41.2556 171.74 39.0815C169.552 36.9075 166.583 35.6862 163.488 35.6862H149.811C140.53 35.6811 131.631 32.016 125.07 25.4964L115.384 15.8978C113.201 13.7293 110.243 12.508 107.156 12.5012H79.7894C76.6945 12.5018 73.7266 13.7236 71.5385 15.8978L61.8755 25.4964C55.3113 32.0189 46.4076 35.6842 37.123 35.6862H23.4455C20.3503 35.6862 17.3819 36.9075 15.1933 39.0815C13.0048 41.2556 11.7752 44.2042 11.7752 47.2787V116.834C11.7752 119.908 13.0048 122.857 15.1933 125.031C17.3819 127.205 20.3503 128.426 23.4455 128.426H163.488C166.583 128.426 169.552 127.205 171.74 125.031C173.929 122.857 175.159 119.908 175.159 116.834ZM23.4455 24.0937C17.2552 24.0937 11.3184 26.5364 6.94125 30.8844C2.56406 35.2324 0.10498 41.1296 0.10498 47.2787L0.10498 116.834C0.10498 122.983 2.56406 128.88 6.94125 133.228C11.3184 137.576 17.2552 140.019 23.4455 140.019H163.488C169.679 140.019 175.615 137.576 179.992 133.228C184.37 128.88 186.829 122.983 186.829 116.834V47.2787C186.829 41.1296 184.37 35.2324 179.992 30.8844C175.615 26.5364 169.679 24.0937 163.488 24.0937H149.811C143.621 24.0924 137.685 21.6488 133.309 17.3005L123.646 7.70187C119.27 3.35353 113.334 0.909974 107.144 0.908661H79.7894C73.5996 0.909974 67.6638 3.35353 63.2876 7.70187L53.6247 17.3005C49.2485 21.6488 43.3127 24.0924 37.123 24.0937H23.4455Z" fill="white"/>
<path fill-rule="evenodd" clip-rule="evenodd" d="M93.4669 105.241C101.205 105.241 108.626 102.188 114.097 96.7528C119.569 91.3178 122.643 83.9463 122.643 76.26C122.643 68.5736 119.569 61.2022 114.097 55.7671C108.626 50.3321 101.205 47.2787 93.4669 47.2787C85.7291 47.2787 78.3081 50.3321 72.8367 55.7671C67.3652 61.2022 64.2913 68.5736 64.2913 76.26C64.2913 83.9463 67.3652 91.3178 72.8367 96.7528C78.3081 102.188 85.7291 105.241 93.4669 105.241ZM93.4669 116.834C104.3 116.834 114.689 112.559 122.349 104.95C130.009 97.3409 134.313 87.0208 134.313 76.26C134.313 65.4991 130.009 55.179 122.349 47.57C114.689 39.9609 104.3 35.6862 93.4669 35.6862C82.6339 35.6862 72.2446 39.9609 64.5846 47.57C56.9245 55.179 52.6211 65.4991 52.6211 76.26C52.6211 87.0208 56.9245 97.3409 64.5846 104.95C72.2446 112.559 82.6339 116.834 93.4669 116.834Z" fill="white"/>
<path d="M35.1155 53.0749C35.1155 54.6122 34.5008 56.0865 33.4065 57.1735C32.3122 58.2605 30.828 58.8712 29.2804 58.8712C27.7329 58.8712 26.2487 58.2605 25.1544 57.1735C24.0601 56.0865 23.4453 54.6122 23.4453 53.0749C23.4453 51.5377 24.0601 50.0634 25.1544 48.9764C26.2487 47.8894 27.7329 47.2787 29.2804 47.2787C30.828 47.2787 32.3122 47.8894 33.4065 48.9764C34.5008 50.0634 35.1155 51.5377 35.1155 53.0749Z" fill="white"/>
</svg>
