<svg width="200" height="200" viewBox="0 0 200 200" fill="none" xmlns="http://www.w3.org/2000/svg">
<g clip-path="url(#clip0)">
<path d="M124.869 139.355C124.869 139.355 139.477 142.277 157.008 130.589C157.008 130.589 164.521 126.415 166.608 125.998C166.608 125.998 163.269 137.685 167.026 147.703C170.782 158.138 168.278 168.99 168.278 168.99C168.278 168.99 165.773 172.747 168.695 175.251C168.695 175.251 174.956 176.086 177.878 174.834C180.8 173.164 188.313 175.251 188.313 175.251C188.313 175.251 192.487 176.921 194.574 175.251C194.574 175.251 200.001 177.338 200.001 174.417C200.001 174.417 199.166 173.582 197.914 173.582C196.661 173.164 195.409 172.33 194.575 172.33C194.575 172.33 184.14 168.156 183.305 167.321C182.053 166.486 180.383 165.651 179.966 160.642C179.131 155.634 179.966 148.538 181.218 138.103C182.888 127.668 183.305 122.659 183.305 122.659C183.305 122.659 184.14 115.564 181.218 110.555C178.296 105.546 170.366 105.546 170.366 105.546C170.366 105.546 146.992 108.05 142.4 111.389L124.869 139.355Z" fill="#F5B54C"/>
<path d="M142.399 111.807L124.869 139.355C124.869 139.355 131.964 140.607 142.399 137.685C143.652 134.763 144.904 131.007 144.486 127.668C143.652 122.241 145.321 114.728 146.156 110.554C144.486 110.554 143.234 110.972 142.399 111.807Z" fill="#344A5E"/>
<path d="M99.8247 135.598L123.616 148.538L122.782 149.79C122.782 149.79 112.764 169.825 91.4769 177.756C91.4769 177.756 88.555 179.425 87.7203 180.26C87.3028 181.095 83.1291 181.93 78.955 180.678C78.955 180.678 56.4155 179.843 49.3199 179.008C42.2243 177.756 30.9546 177.756 30.9546 177.756C30.9546 177.756 21.3546 177.756 18.8502 177.338C16.7633 176.921 15.0936 176.921 15.0936 176.921C15.0936 176.921 8.41513 173.999 6.7458 174.416C5.07608 174.834 1.73704 177.338 0.0673177 174.416C0.0673177 174.416 -0.35021 173.582 0.901982 173.164C0.901982 173.164 0.484454 171.912 2.15417 171.494C2.15417 171.494 2.5717 168.99 7.16294 168.572C11.7542 168.155 14.6761 167.32 16.3458 165.651C18.0155 163.981 20.937 161.059 23.0243 161.476C25.1115 161.894 25.9462 163.981 25.9462 164.398C25.9462 164.816 26.3637 166.903 29.2852 166.903C32.2068 166.903 40.1374 165.651 45.1462 163.981C50.155 162.311 58.9203 161.894 62.6769 163.146C66.4335 164.398 72.2769 164.398 72.2769 164.398C72.2769 164.398 77.2857 165.233 81.8769 159.39C86.4681 153.963 98.5729 139.355 100.242 138.52C99.8247 138.937 99.4072 137.268 99.8247 135.598Z" fill="#FFD15C"/>
<path d="M148.243 84.2584L146.156 100.954C146.156 100.954 143.234 118.068 140.73 124.329C138.643 126.415 134.469 126.833 129.877 125.163C124.034 122.659 118.19 117.65 116.938 115.146C116.52 114.311 116.52 113.059 116.938 111.807C117.355 111.389 120.695 107.215 120.277 103.876C119.859 100.119 118.607 98.0325 117.773 94.276C116.938 90.5194 116.52 86.7628 114.434 83.8409C112.347 80.919 111.929 67.1449 111.929 67.1449C111.929 67.1449 112.764 60.8839 116.103 58.7971C116.103 58.7971 119.025 53.3708 119.86 43.7708C119.86 43.7708 123.199 29.9967 129.46 31.2489C135.721 32.5011 135.721 50.4493 135.721 50.4493C135.721 50.4493 130.295 55.8756 131.13 62.1365C131.13 62.1365 139.06 67.98 142.399 70.4843C144.904 72.9887 149.495 76.7453 148.243 84.2584Z" fill="#FFD15C"/>
<path d="M134.886 50.4493C134.886 50.4493 129.46 55.8756 130.295 62.1365C130.295 62.1365 130.712 62.1365 131.13 62.554C128.208 60.4672 121.112 56.7106 114.434 60.0497C114.851 59.6321 115.268 59.215 115.686 59.215C115.686 59.215 118.608 53.7887 119.442 44.1887C119.442 44.1887 122.781 30.4146 129.042 31.6668C135.304 32.5011 134.886 50.4493 134.886 50.4493Z" fill="#FFD15C"/>
<path d="M136.556 22.4836L144.069 27.9099C144.069 27.9099 146.573 33.7533 145.739 36.6752C145.739 36.6752 144.904 38.3449 144.904 39.5971C145.321 40.8493 146.574 43.7712 146.991 45.0234C147.408 46.2756 144.486 46.2756 144.486 46.2756C144.486 46.2756 143.652 46.6931 144.069 47.9453C144.486 48.78 144.069 49.1975 143.651 49.1975C143.651 49.1975 144.486 49.615 144.069 50.0322C144.069 50.0322 141.565 51.7019 141.982 53.3712C142.4 55.0409 140.312 56.2931 138.225 55.4581C136.556 54.6234 129.043 52.119 127.79 39.1796C127.373 25.4055 136.556 22.4836 136.556 22.4836Z" fill="#FFD15C"/>
<path d="M117.773 27.9098C117.355 27.0751 116.103 27.0751 115.269 27.4923C114.434 27.9094 114.016 28.7445 114.016 29.9967C112.764 33.7532 113.599 37.9273 114.434 42.101C115.269 46.2751 116.521 50.0317 116.104 54.2054C115.269 60.8839 110.26 66.7273 110.26 73.4058C105.669 67.9795 103.582 60.0492 105.669 53.3708C104.834 56.2927 103.582 59.2142 101.495 62.1361C102.747 59.2142 101.077 55.0405 102.33 52.1186C103.164 50.8664 103.999 50.0317 104.416 48.7795C105.251 46.6927 103.999 45.0229 103.164 42.9361C101.912 39.1795 102.33 34.5883 103.999 31.2488C106.086 27.4923 109.425 24.9879 113.182 24.1532C114.016 23.7357 116.938 24.1532 118.608 25.8229" fill="#425A6B"/>
<path d="M118.19 24.1531C119.025 25.4053 125.703 15.8053 135.303 19.5619C143.651 22.4838 144.486 27.9097 144.486 27.9097C144.486 27.9097 141.564 27.075 141.147 28.7443C140.73 29.9965 139.895 34.1706 135.304 35.0053C135.304 35.0053 134.886 37.0922 134.469 39.5965H132.799C132.799 39.5965 132.799 33.7531 127.79 34.1702C122.782 34.5878 125.286 41.6834 122.364 45.0224C119.86 47.9443 118.608 47.9444 118.608 47.9444C118.608 47.9444 119.025 45.8575 117.355 42.9356C115.686 40.0137 114.433 35.0049 116.103 31.2483C118.608 27.0742 116.938 27.0742 116.938 27.0742" fill="#425A6B"/>
<path d="M117.355 27.9097C116.521 27.9097 116.103 27.9097 115.686 27.4922C116.52 26.24 116.938 24.9878 117.355 24.1532C118.19 23.7356 119.025 23.7356 119.442 24.1532C118.607 24.9878 117.773 26.24 117.355 27.9097Z" fill="#F26F5A"/>
<path d="M131.758 36.2846C130.667 33.7424 128.58 32.1974 127.097 32.8337C125.614 33.47 125.296 36.0466 126.387 38.5888C127.478 41.131 129.564 42.6761 131.047 42.0398C132.53 41.4035 132.848 38.8268 131.758 36.2846Z" fill="#FFD15C"/>
<path d="M141.565 70.4843C138.226 67.9799 130.295 62.1365 130.295 62.1365C130.295 62.1365 121.947 53.3711 114.016 60.4668C111.929 62.9711 111.512 67.5624 111.512 67.5624C111.512 67.5624 111.512 68.397 111.512 69.6492C112.347 65.058 115.686 54.6229 128.208 62.1361C128.208 62.1361 137.808 67.1448 138.643 72.5711C138.643 72.5711 129.878 92.1887 114.017 84.6755C115.686 87.5974 116.104 90.9365 116.939 93.8584C119.861 95.5281 128.208 97.1974 147.409 88.4321L147.826 84.258C149.495 76.7452 144.904 72.9887 141.565 70.4843Z" fill="#425A6B"/>
<path d="M174.121 109.719C173.287 112.224 171.199 113.476 171.199 113.476C171.199 113.476 167.025 113.893 165.773 112.641C165.773 112.641 163.269 112.641 162.434 110.972C162.434 110.972 157.425 108.467 151.582 103.458C145.739 98.0321 139.06 93.0233 135.721 90.1018C133.634 88.4321 131.13 85.9277 129.46 84.2584C125.703 86.7628 120.695 87.5974 114.434 84.6759C114.434 84.6759 111.095 78.8325 111.929 69.6496C112.764 65.0584 116.103 54.6233 128.625 62.1365C128.625 62.1365 138.225 67.1452 139.06 72.5715C139.06 72.5715 142.817 80.0847 146.156 83.0066C149.495 86.3456 152.835 90.1022 152.835 90.1022C152.835 90.1022 154.921 92.1891 156.591 93.4413C158.261 94.2759 164.104 100.12 165.356 101.789C165.356 101.789 166.609 100.954 167.026 102.207C167.026 101.789 169.113 101.789 169.113 102.624C169.531 101.789 171.617 103.042 171.2 103.459C171.617 103.041 173.287 103.876 172.87 104.711C172.869 103.876 174.956 107.215 174.121 109.719Z" fill="#FFD15C"/>
<path d="M129.877 125.163C124.034 122.659 118.19 117.65 116.938 115.146C116.52 114.311 116.52 113.059 116.938 111.807C115.686 112.641 109.007 120.572 109.007 120.572C101.911 124.746 100.242 131.007 99.8242 134.763L123.616 147.703L133.633 134.346C133.633 134.346 137.39 130.59 140.312 125.581C140.729 125.163 140.729 124.746 141.147 123.911C138.643 126.833 134.468 127.25 129.877 125.163Z" fill="#425A6B"/>
<path d="M133.634 51.7014C133.216 52.119 132.799 52.9536 132.382 53.3712C129.46 48.3624 127.791 43.7712 127.791 43.3536C129.46 47.1098 132.799 50.8664 133.634 51.7014Z" fill="#F5B54C"/>
</g>
<defs>
<clipPath id="clip0">
<rect width="200" height="200" fill="white"/>
</clipPath>
</defs>
</svg>
